# xmcd
# 
# Track frame offsets:
#     150
#     16823
#     35408
#     52204
#     66237
#     80118
#     99937
#     114472
#     131964
#     145313
#     156951
#     170040
# 
# Disc length: 2332
# 
# Revision: 3
# Processed by: cddbd v1.5.2PL0 Copyright (c) Steve Scherf et al.
# Submitted via: fre:ac v1.0.17
# 
DISCID=ad091a0c
DTITLE=Rogue Wave - Permalight
DYEAR=2010
DGENRE=Alternative
TTITLE0=Solitary Gun
TTITLE1=Good Morning
TTITLE2=Sleepwalker
TTITLE3=Stars And Stripes
TTITLE4=Permalight
TTITLE5=Fear Itself
TTITLE6=Right With You
TTITLE7=We Will Make A Song Destroy
TTITLE8=I'll Never Leave You
TTITLE9=Per Anger
TTITLE10=You Have Boarded
TTITLE11=All That Remains
EXTD=
EXTT0=
EXTT1=
EXTT2=
EXTT3=
EXTT4=
EXTT5=
EXTT6=
EXTT7=
EXTT8=
EXTT9=
EXTT10=
EXTT11=
PLAYORDER=
